<?xml version="1.0" encoding="UTF-8" standalone="no"?>
<!-- Created with Inkscape (http://www.inkscape.org/) -->

<svg
   width="540.69824mm"
   height="140.09032mm"
   viewBox="0 0 540.69824 140.09032"
   version="1.1"
   id="svg1"
   xmlns:xlink="http://www.w3.org/1999/xlink"
   xmlns="http://www.w3.org/2000/svg"
   xmlns:svg="http://www.w3.org/2000/svg">
  <defs
     id="defs1">
    <linearGradient
       id="linearGradient5">
      <stop
         style="stop-color:#3a41c5;stop-opacity:1;"
         offset="0"
         id="stop5" />
      <stop
         style="stop-color:#5b0e7e;stop-opacity:1;"
         offset="1"
         id="stop6" />
    </linearGradient>
    <linearGradient
       xlink:href="#linearGradient5"
       id="linearGradient6"
       x1="-132.38982"
       y1="143.81624"
       x2="378.07358"
       y2="143.81624"
       gradientUnits="userSpaceOnUse"
       gradientTransform="translate(76.766949,-8.809322)" />
    <linearGradient
       xlink:href="#linearGradient5"
       id="linearGradient2"
       gradientUnits="userSpaceOnUse"
       gradientTransform="translate(76.766949,-8.809322)"
       x1="-132.38982"
       y1="143.81624"
       x2="378.07358"
       y2="143.81624" />
    <linearGradient
       xlink:href="#linearGradient5"
       id="linearGradient3"
       gradientUnits="userSpaceOnUse"
       gradientTransform="translate(76.766949,-8.809322)"
       x1="-132.38982"
       y1="143.81624"
       x2="378.07358"
       y2="143.81624" />
  </defs>
  <g
     id="layer1"
     transform="translate(56.419144,-63.193862)">
    <g
       id="text1"
       style="font-size:145.096px;font-family:'.Arial Hebrew Desk Interface';-inkscape-font-specification:'.Arial Hebrew Desk Interface';fill:url(#linearGradient6);stroke:#ffffff;stroke-width:10;paint-order:stroke fill markers"
       aria-label="GLFWC3">
      <path
         style="font-family:'.Al Bayan PUA';-inkscape-font-specification:'.Al Bayan PUA';fill:url(#linearGradient2)"
         d="m 42.595692,188.43636 q -8.643414,3.96747 -18.916324,6.94307 -10.202062,2.90475 -19.7664947,2.90475 -12.3274916,0 -22.6004013,-3.40069 -10.27291,-3.40068 -17.49937,-10.20206 -7.297308,-6.87222 -11.264777,-17.14513 -3.967469,-10.34376 -3.967469,-24.15905 0,-25.29261 14.736312,-39.88723 14.80716,-14.665463 40.5957053,-14.665463 8.9976517,0 18.3495417,2.196278 9.422738,2.125429 20.262429,7.297308 v 16.649197 h -1.275258 q -2.196277,-1.70034 -6.376288,-4.4634 -4.180012,-2.76306 -8.218328,-4.6051 -4.888488,-2.19628 -11.123082,-3.61323 -6.1637455,-1.4878 -14.0278349,-1.4878 -17.7119131,0 -28.0556701,11.40647 -10.27291,11.33563 -10.27291,30.74788 0,20.47498 10.768843,31.88145 10.768843,11.33562 29.3309284,11.33562 6.8013746,0 13.5319016,-1.3461 6.801375,-1.34611 11.902406,-3.47154 V 155.4922 H 0.44133828 V 143.16471 H 42.595692 Z m 91.251778,7.79324 H 67.10898 V 90.737444 h 14.027835 v 93.022966 h 52.710655 z m 81.40395,-93.02297 h -53.34828 v 29.75602 h 45.83843 v 12.46918 H 161.90314 V 196.2296 H 147.87531 V 90.737444 h 67.37611 z M 354.04198,90.737444 326.62394,196.2296 H 310.82492 L 288.6496,108.6619 266.97022,196.2296 H 251.52543 L 223.61146,90.737444 h 14.38207 l 22.17531,87.709396 21.82108,-87.709396 h 14.24038 l 22.03362,88.559566 22.03362,-88.559566 z"
         id="path6" />
      <path
         style="font-size:94.3122px;font-family:'.Al Bayan PUA';-inkscape-font-specification:'.Al Bayan PUA';baseline-shift:super;fill:url(#linearGradient3)"
         d="m 422.72865,133.21771 q -2.5328,1.10522 -4.60509,2.07228 -2.02624,0.96707 -5.3419,2.02624 -2.8091,0.87497 -6.12477,1.47363 -3.26961,0.64471 -7.22998,0.64471 -7.46025,0 -13.58501,-2.07229 -6.07872,-2.11834 -10.59171,-6.58527 -4.42088,-4.37484 -6.90763,-11.09826 -2.48675,-6.76948 -2.48675,-15.70335 0,-8.473366 2.39465,-15.150743 2.39465,-6.677378 6.90763,-11.282466 4.37484,-4.466935 10.54565,-6.81553 6.21687,-2.348595 13.76922,-2.348595 5.5261,0 11.00616,1.335476 5.5261,1.335475 12.24953,4.697189 v 10.821957 h -0.69076 q -5.66426,-4.743241 -11.23642,-6.907632 -5.57215,-2.164391 -11.92717,-2.164391 -5.20375,0 -9.39438,1.703882 -4.14458,1.657832 -7.4142,5.20375 -3.17751,3.453816 -4.97349,8.749667 -1.74993,5.2498 -1.74993,12.157436 0,7.22998 1.93413,12.43373 1.98019,5.20375 5.0656,8.47337 3.22356,3.40776 7.50629,5.06559 4.32879,1.61178 9.11808,1.61178 6.58527,0 12.34163,-2.25649 5.75636,-2.25649 10.77591,-6.76948 h 0.64471 z m 51.48488,-28.04499 q 2.21044,1.98019 3.63802,4.97349 1.42758,2.99331 1.42758,7.73655 0,4.69719 -1.70389,8.61152 -1.70388,3.91432 -4.78929,6.81553 -3.45381,3.22356 -8.151,4.78929 -4.65114,1.51968 -10.2233,1.51968 -5.71031,0 -11.23641,-1.38153 -5.52611,-1.33547 -9.07203,-2.94726 v -9.62463 h 0.69077 q 3.91432,2.57885 9.21017,4.28273 5.29585,1.70389 10.2233,1.70389 2.9012,0 6.17082,-0.96707 3.26961,-0.96707 5.29585,-2.85516 2.11834,-2.02624 3.13146,-4.46693 1.05917,-2.4407 1.05917,-6.17082 0,-3.68407 -1.19733,-6.07872 -1.15127,-2.44069 -3.22356,-3.82222 -2.07229,-1.42758 -5.01954,-1.93414 -2.94726,-0.55261 -6.35503,-0.55261 h -4.14457 v -7.644444 h 3.22356 q 6.99973,0 11.14431,-2.901205 4.19063,-2.947257 4.19063,-8.565464 0,-2.486748 -1.05917,-4.328783 -1.05917,-1.888086 -2.94726,-3.085409 -1.98018,-1.197323 -4.23668,-1.657831 -2.25649,-0.460509 -5.11164,-0.460509 -4.37484,0 -9.30228,1.56573 -4.92745,1.56573 -9.30228,4.420884 h -0.46051 v -9.624634 q 3.26961,-1.611781 8.70362,-2.947256 5.48005,-1.381527 10.5917,-1.381527 5.01955,0 8.84177,0.921018 3.82222,0.921018 6.90763,2.947256 3.31566,2.210443 5.01955,5.341903 1.70388,3.131459 1.70388,7.322089 0,5.71031 -4.05248,9.993041 -4.00643,4.236681 -9.48648,5.341901 v 0.64471 q 2.21044,0.36841 5.0656,1.56573 2.85515,1.15128 4.83534,2.90121 z"
         id="path7" />
    </g>
  </g>
</svg>
